<?xml version="1.0" standalone="no"?><svg xmlns="http://www.w3.org/2000/svg" viewBox="0 0 1440 320"><path fill="#ffffff" fill-opacity="1" d="M0,128L30,117.3C60,107,120,85,180,80C240,75,300,85,360,112C420,139,480,181,540,197.3C600,213,660,203,720,192C780,181,840,171,900,181.3C960,192,1020,224,1080,213.3C1140,203,1200,149,1260,149.3C1320,149,1380,203,1410,229.3L1440,256L1440,320L1410,320C1380,320,1320,320,1260,320C1200,320,1140,320,1080,320C1020,320,960,320,900,320C840,320,780,320,720,320C660,320,600,320,540,320C480,320,420,320,360,320C300,320,240,320,180,320C120,320,60,320,30,320L0,320Z"></path></svg>